/* XPM */
static char *_49ed32a31f647a0dbdbe7a191f0afbb0qVqkhF5KAFKVkJ2[] = {
/* columns rows colors chars-per-pixel */
"32 32 55 1 ",
"  c #FFB106",
". c #FFB108",
"X c #FFB30D",
"o c #FFB40E",
"O c #FFB510",
"+ c #FFB411",
"@ c #FFB511",
"# c #FFB615",
"$ c #FFB616",
"% c #FFB718",
"& c #FFB81B",
"* c #FFB81D",
"= c #FFB91F",
"- c #FFB921",
"; c #FFBA21",
": c #FFBB25",
"> c #FFBC28",
", c #FFBE2F",
"< c #FFBF31",
"1 c #FFC546",
"2 c #FFC84F",
"3 c #FFC850",
"4 c #FFCC5C",
"5 c #FFCC5D",
"6 c #FFCE61",
"7 c #FFCF66",
"8 c #FFCF68",
"9 c #FFD373",
"0 c #FFD476",
"q c #FFD579",
"w c #FFD882",
"e c #FFD883",
"r c #FFDE97",
"t c #FFDF9A",
"y c #FFE6B0",
"u c #FFE9B9",
"i c #FFECC2",
"p c #FFECC3",
"a c #FFEDC4",
"s c #FFEDC6",
"d c #FFEFCB",
"f c #FFEFCD",
"g c #FFF0CE",
"h c #FFF0D0",
"j c #FFF1D1",
"k c #FFF2D6",
"l c #FFF3DA",
"z c #FFF4DB",
"x c #FFF4DD",
"c c #FFF5E1",
"v c #FFF8E9",
"b c #FFFBF2",
"n c #FFFCF6",
"m c #FFFEFB",
"M c white",
/* pixels */
"MMMMMMMMMMmmMMMMMMMMmMMMMMMMMMMM",
"MMMMMMMMMMMMMvjssjvMMMMmMMMMMMMM",
"MMMMMMMMMMje1:#@@#:1ejMMmMMMMMMM",
"MMMMMMmMk5&.@%****%@.&5kMMMMMMMM",
"MMMMMMMr&o*-*****-**-*o&rMmMMMMM",
"MMMMmM9.*-#yxy%%##**&*-&.9MMMMMM",
"MMMmM9 -**#gMk@-u5 -**&*-.9MmMMM",
"MMMMt.-***#dMs#sMM3@***&*-.tMmMM",
"MmMl&&*&**#gMjpMMj<%&**&&*&&lMMM",
"MMM5o-&*&*#gMMMMf:#%,@**&*-o6MMM",
"MMk%*&&***#fMmMj:%oqv3#***&*#kMm",
"mMe.-&*&**#fMMf:%X9MMb>&*&**XeMm",
"MM1#**&*&*#fMc>%X0MMM7#**&**@1MM",
"Mv-&***&**#dMd#X0MmM7.**&*&*#:vM",
"Mj#*&*&*&*#dMj 9MmM6.-*&*&&**#jM",
"Mp@**&*&**#dMp9MMM7.-*&*&****@sM",
"Ms@*&*&***#fMbMmM7.-&*&*&**&*osM",
"Mj#**&*&**#fMMMM6.-**&*&*&&**%jM",
"Mv:&*&&***#fMmM7.***&*&*&*&*&-vM",
"MM1@***&**#fMn8.-*&**&*&*&**@1MM",
"mMe -*&*%*#fMfX-****&*&*&*&-oeMm",
"MMk&***&**#fMf%--*-****&*&**#kMM",
"MmM5o**&**#fMd.Xoooooo&*&*-o6MMM",
"MMMz&&**&*#fMx67777788,#***#lMmM",
"MMmMt.-***#fMMMMMMMMMM3@*- tMMMM",
"MMMmM9.-**#kMMMMMMMMMM3@-.9MmMMM",
"MMMMmM9.*-%24444445455,%.9MMMMMM",
"MMMMMMMt%@*%X+X@@X@@@@.*tMMMMMMM",
"MMMMMMmMk5#o#**---*#X#6kMmMMMMMM",
"MMMMMMMmMMje1:#@@#-1wjMMmMMMMMMM",
"MMMMMMMMMmMMMvjssjvMMMmMMMMMMMMM",
"MMMMMMMMMMMmMMMMMMMMmMMMMMMMMMMM"
};
