/* XPM */
static char *_a310bec5664454adec21c6a77a622dfDqnf5Xh5WsqTmqWc[] = {
/* columns rows colors chars-per-pixel */
"16 16 49 1 ",
"  c #FFAE00",
". c #FFB106",
"X c #FFB209",
"o c #FFB30C",
"O c #FFB40E",
"+ c #FFB511",
"@ c #FFB617",
"# c #FFB71A",
"$ c #FFB81B",
"% c #FFB81C",
"& c #FFB921",
"* c #FFBA23",
"= c #FFBC29",
"- c #FFBD2B",
"; c #FFBF32",
": c #FFC137",
"> c #FFC23C",
", c #FFC545",
"< c #FFC547",
"1 c #FFCA55",
"2 c #FFCC5D",
"3 c #FFCD5F",
"4 c #FFCE63",
"5 c #FFCF66",
"6 c #FFD373",
"7 c #FFD374",
"8 c #FFD577",
"9 c #FFD579",
"0 c #FFD67D",
"q c #FFD881",
"w c #FFDA87",
"e c #FFDA88",
"r c #FFDB8C",
"t c #FFE7B2",
"y c #FFEBBE",
"u c #FFECC4",
"i c #FFEFCB",
"p c #FFEFCD",
"a c #FFF1D1",
"s c #FFF4DB",
"d c #FFF4DD",
"f c #FFF7E7",
"g c #FFFAEF",
"h c #FFFBF2",
"j c #FFFBF3",
"k c #FFFBF4",
"l c #FFFCF4",
"z c #FFFEFC",
"x c white",
/* pixels */
"xxxxxxlddhxxxxxx",
"xxxxi3&*%:5ixxxx",
"xxxeo:7++@O+wxxx",
"xxeXXrk1u-%%.wxz",
"xi+&O9kxy#$$#+px",
"x5o&X6xt wa$&O5x",
"h;@&X0lX0xq@%@;k",
"s&#&O0fqx8X%%$&s",
"s%$&X8xx9X&%%#&s",
"h:@&o7x7o&%%%#:h",
"x5O&o0gX+#+%&o5x",
"xp+&o0h,,,,&%+ix",
"xxwXO9xxxxx: rxx",
"xxxwo%>,>>;@exxx",
"xxxxi4=##-2ixzxx",
"xxxxxxkddhxxzxxx"
};
