/* XPM */
static char *d07018197be64403ae8149abe58b91a1w1SqZIXULilgTC0l[] = {
/* columns rows colors chars-per-pixel */
"64 64 74 1 ",
"  c #FFAE00",
". c #FFB106",
"X c #FFB20A",
"o c #FFB30B",
"O c #FFB30C",
"+ c #FFB40F",
"@ c #FFB410",
"# c #FFB511",
"$ c #FFB616",
"% c #FFB719",
"& c #FFB81B",
"* c #FFB81C",
"= c #FFB91E",
"- c #FFB920",
"; c #FFBA24",
": c #FFBC28",
"> c #FFBD2B",
", c #FFBD2C",
"< c #FFBF33",
"1 c #FFC13A",
"2 c #FFC33F",
"3 c #FFC341",
"4 c #FFC441",
"5 c #FFC547",
"6 c #FFC64B",
"7 c #FFC84F",
"8 c #FFC850",
"9 c #FFCA56",
"0 c #FFCB5A",
"q c #FFCC5E",
"w c #FFCD5F",
"e c #FFCE61",
"r c #FFCF66",
"t c #FFD06A",
"y c #FFD16C",
"u c #FFD67B",
"i c #FFD77E",
"p c #FFD781",
"a c #FFD882",
"s c #FFD884",
"d c #FFD986",
"f c #FFDA89",
"g c #FFDC90",
"h c #FFDF99",
"j c #FFDF9A",
"k c #FFE09B",
"l c #FFE2A2",
"z c #FFE2A5",
"x c #FFE3A6",
"c c #FFE3A8",
"v c #FFE4A9",
"b c #FFE5AF",
"n c #FFE6AF",
"m c #FFE8B7",
"M c #FFEABB",
"N c #FFEBBF",
"B c #FFECC3",
"V c #FFECC4",
"C c #FFEDC7",
"Z c #FFEFCB",
"A c #FFEFCD",
"S c #FFF1D2",
"D c #FFF2D5",
"F c #FFF3D9",
"G c #FFF5DE",
"H c #FFF5E0",
"J c #FFF7E6",
"K c #FFF9EC",
"L c #FFFAEF",
"P c #FFFBF3",
"I c #FFFCF7",
"U c #FFFDF7",
"Y c #FFFDFA",
"T c white",
/* pixels */
"TTTTTTTTTTTTTTTTTTTTTTTTTTTTTTTTTTTTTTTTTTTTTTTTTTTTTTTTTTTTTTTT",
"TTTTTTTTTTTTTTTTTTTTTTTTTTTTYYYTYYYYTTTTTTTTTTTTTTTTTTTTTTTTTTTT",
"TTTTTTTTTTTTTTTTTTTTTTTYYTTTTTTTTTTTTTTYTTTTTTTTTTTTTTTTTTTTTTTT",
"TTTTTTTTTTTTTTTTTTTTTYTTTTLSmlgfdglmSLTTTTYTTTTTTTTTTTTTTTTTTTTT",
"TTTTTTTTTTTTTTTTTTTYTTYVp8,%OOOXOOOO$,7dVYTTYTTTTTTTTTTTTTTTTTTT",
"TTTTTTTTTTTTTTTTTYTTFp1#X#%%-------==$#X#1pFTTYTTTTTTTTTTTTTTTTT",
"TTTTTTTTTTTTTTTTTTDt=O$=-=====%*=***%==-=$O*tDTTYTTTTTTTTTTTTTTT",
"TTTTTTTTTTTTTTYTPu*O*-=*=&%=%==*****==%=*--*O%uPTYTTTTTTTTTTTTTT",
"TTTTTTTTTTTTTYTM<X==**===-=*****************-*O<MTYTTTTTTTTTTTTT",
"TTTTTTTTTTTTTTd#$-%=**$####$***=**************-$#dTTYTTTTTTTTTTT",
"TTTTTTTTTTYTUeX==***-@iBBNBp@==%****************=XeUTTTTTTTTTTTT",
"TTTTTTTTTTTP7X-=****-OcTTTTbO-==%$%=************=-X7PTTTTTTTTTTT",
"TTTTTTTTTTI8O-=&==%*=XhYUYYzO--X7N,#-*************-O8YTTTTTTTTTT",
"TTTTTTTTYTeX-==&%==*-#zTYYTcO;O6LTS:$=************=-XeTYTTTTTTTT",
"TTTTTTTTTfX-=%%==%%*-#lTYYTz##5LTITD:%************=%=XfTYTTTTTTT",
"TTTTTTYTN@==%==%%====XlTTYTb 6LTTTITA%***********=%==-ONTTTTTTTT",
"TTTTTTTL<$=*********-OlTYYTh1PTTTTTUe$***************=$<PTTTTTTT",
"TTTTTYTiX-=*********-OlTYTTZJTTTYTY0X-**-*************-XiTYTTTTT",
"TTTTTTF%************-OlTYTTTTYTYTY0X-**=#%=*************%FTTTTTT",
"TTTTYTyO-***********-OlTYTTTTTTTY9O-**=O9<#=***********-OyTTTTTT",
"TTTYTG=%************-OlTYTTTTYTY9O-==-XqTZ*$=%=*********%=GTYTTT",
"TTTYTdX-************-OlTYTTTTTY0O-%=-XeTTTA-$=**********-XdTYTTT",
"TTTTY1$=************-OlTYTTTTY0X-*=-XeYTTYTA,%**********=$1YTTTT",
"TTTTC#==************-OlTYTTTY9O-*=-XwYTTTTTI3$=*********%=#CTTTT",
"TTYTdO-*************-OlTYTYP0O-**-XeYTYTYTL2O-**********=-OdTYTT",
"TTTT8#=*************-OlTYTTc.==*-OeYTTTTTL2O==***********=#8TTTT",
"TTTP,%%=************-OlTTYTz#==-OqTTTTYTL3@-=*************%,LTTT",
"TYTS%*=%************-OlTYYTzO=-XeTTYTYTL3@-*%=*************%STTT",
"TTTm+===************-OlTYYTz+;XeYTYTYTK2O-=*************&==+mTTT",
"TYTlO-%=************-OlTTYTc#+eYTTTTTL4O-***************&=-XhTYT",
"TYTfO-=%************-OlTYYTv eTTTTYTL3#-**************%==%-+gTYT",
"TYTfO-&=************-OlTYYTh8TTYTYTL3#-%************=%==%=-XfTYT",
"TTTfO-***********==%-XlTYTTDUTTTYTL2O-=%******************-XfTYT",
"TYTfO-***********%==-XlTYTTTTYTTTL3+-=%=******************-OgTYT",
"TYTlO-************=%-#lTTTTTTTYTK3+-**=*******************-OlTTT",
"TYTm@=************%==XlTYTTTTYTK2O==**********************=@mTYT",
"TTTS%***************-@lTYTTTYTL4@-**********************=%=%STTT",
"TTTL>%**************=XlTYTTTTL2+-************************=$,LTTT",
"TTTT8#=*************-#lTYTTTL3O-*************************=#7TTTT",
"TTYTdO-*************=XlTYTTJ3#-=*************************-XdTYTT",
"TTYTC#==************-OlTTYTz.-=%*************************=#ZTYTT",
"TTTTY1#=************-OlTYYTz+-%=*************************$1YTTTT",
"TTTYTdO-************-OlTYYTz+=&&******%=****************-OdTYTTT",
"TTTTTG=%************-OlTTYTv+==&******=%****************%=GTTTTT",
"TTTTTTtO-***********-OlTYYTz@===**==%=-=**=%=**********-OtTYTTTT",
"TTTTYTF=*=**********-OlTTYTc#===-=====*-==-*************=FTTTTTT",
"TTTTTTTiX-**********-OlTYYTl #OOOOO+OO@OOO@O$*******%=-XiTYTTTTT",
"TTTTTTYP<$=*********-OlTYTTHcbbbbbbbnnnnnnnb0#-*****==$<LTTTTTTT",
"TTTTTTYTN#=*********-OlTYTTTTTTTTTTTTTTTTTTTpX-******=@NTTTTTTTT",
"TTTTTTTYTfX-********-OlTTTTTYTYTTYYTYYTYTYUTiO-*****-XfTYTTTTTTT",
"TTTTTTTTYTeX-=******-OlYUYYYYYYTYYYYYTYTYYUYuX-=%=*-XeTYTTTTTTTT",
"TTTTTTTTTTU7O-******-XcTTTTTTTTTTTTTTTTTTTTTpX-%==-O7ITTTTTTTTTT",
"TTTTTTTTTTTP7X-=****=$rhhhhhhhhhhhhhhhhhhhhk8$==%-X7PTTTTTTTTTTT",
"TTTTTTTTTTTTUeX==****=#OOOOOOOOOOOOOOOOOX++X$*%==XwUTTTTTTTTTTTT",
"TTTTTTTTTTTYTTd#$-****=--=-------=--------==***$#dTTYTTTTTTTTTTT",
"TTTTTTTTTTTTTTTM<X*-****=&=%==***====%=%=%==-=X<NTTTTTTTTTTTTTTT",
"TTTTTTTTTTTTTTYTLu%O===***=%%=&&**%=****%=-*O*uLTYTTTTTTTTTTTTTT",
"TTTTTTTTTTTTTTTYTTDt=O$=-=*==%==**==**=-=$O=tDTTTTTTTTTTTTTTTTTT",
"TTTTTTTTTTTTTTTTTYTTFp1#O#%==-=-----*%#O#1pFTTYTTTTTTTTTTTTTTTTT",
"TTTTTTTTTTTTTTTTTTTYTTYBs7,%OO+XXOOO%>7sBYTTTTTTTTTTTTTTTTTTTTTT",
"TTTTTTTTTTTTTTTTTTTTTYTTTTLSmhgffflmSLTTTTYTTTTTTTTTTTTTTTTTTTTT",
"TTTTTTTTTTTTTTTTTTTTTTTYYTTTTTTTTTTTTTTYYTTTTTTTTTTTTTTTTTTTTTTT",
"TTTTTTTTTTTTTTTTTTTTTTTTTTTTTYYYTYYYTTTTTTTTTTTTTTTTTTTTTTTTTTTT",
"TTTTTTTTTTTTTTTTTTTTTTTTTTTTTTTTTTTTTTTTTTTTTTTTTTTTTTTTTTTTTTTT"
};
