/* XPM */
static char *a6fcc2bb64564543fe937bea82b89e24ppNXW7I5FGWKb79p[] = {
/* columns rows colors chars-per-pixel */
"128 128 80 1 ",
"  c #FFB003",
". c #FFB105",
"X c #FFB20A",
"o c #FFB30B",
"O c #FFB30C",
"+ c #FFB40F",
"@ c #FFB412",
"# c #FFB512",
"$ c #FFB615",
"% c #FFB717",
"& c #FFB71B",
"* c #FFB81B",
"= c #FFB91E",
"- c #FFB920",
"; c #FFBB24",
": c #FFBA25",
"> c #FFBB27",
", c #FFBD2B",
"< c #FFBD2D",
"1 c #FFBE31",
"2 c #FFBF34",
"3 c #FFC034",
"4 c #FFC035",
"5 c #FFC23B",
"6 c #FFC33E",
"7 c #FFC341",
"8 c #FFC444",
"9 c #FFC544",
"0 c #FFC545",
"q c #FFC648",
"w c #FFC74C",
"e c #FFC84E",
"r c #FFC950",
"t c #FFC951",
"y c #FFCA54",
"u c #FFCC5B",
"i c #FFCD5E",
"p c #FFCE63",
"a c #FFCF65",
"s c #FFD16B",
"d c #FFD26F",
"f c #FFD371",
"g c #FFD67A",
"h c #FFD77E",
"j c #FFD882",
"k c #FFD984",
"l c #FFDA88",
"z c #FFDF97",
"x c #FFDF9A",
"c c #FFE09C",
"v c #FFE4A8",
"b c #FFE5AD",
"n c #FFE6AE",
"m c #FFE7B2",
"M c #FFE8B5",
"N c #FFEABB",
"B c #FFEBBF",
"V c #FFEBC0",
"C c #FFECC4",
"Z c #FFEDC6",
"A c #FFEEC8",
"S c #FFEFCD",
"D c #FFF0CF",
"F c #FFF1D2",
"G c #FFF2D5",
"H c #FFF3DA",
"J c #FFF4DB",
"K c #FFF4DD",
"L c #FFF6E1",
"P c #FFF7E5",
"I c #FFF8E7",
"U c #FFF8E8",
"Y c #FFF9EA",
"T c #FFF9ED",
"R c FloralWhite",
"E c #FFFBF3",
"W c #FFFCF6",
"Q c #FFFCF7",
"! c #FFFDFA",
"~ c white",
/* pixels */
"~~~~~~~~~~~~~~~~~~~~~~~~~~~~~~~~~~~~~~~~~~~~~~~~~~~~~~~~~~~~~~~~~~~~~~~~~~~~~~~~~~~~~~~~~~~~~~~~~~~~~~~~~~~~~~~~~~~~~~~~~~~~~~~~",
"~~~~~~~~~~~~~~~~~~~~~~~~~~~~~~~~~~~~~~~~~~~~~~~~~~~~~~~~~~~~~~~~~~~~~~~~~~~~~~~~~~~~~~~~~~~~~~~~~~~~~~~~~~~~~~~~~~~~~~~~~~~~~~~~",
"~~~~~~~~~~~~~~~~~~~~~~~~~~~~~~~~~~~~~~~~~~~~~~~~~~~~~~~~~~~~~~~~~~~~~~~~~~~~~~~~~~~~~~~~~~~~~~~~~~~~~~~~~~~~~~~~~~~~~~~~~~~~~~~~",
"~~~~~~~~~~~~~~~~~~~~~~~~~~~~~~~~~~~~~~~~~~~~~~~~~~~~~~~~~~~~~~~~~~~~~~~~~~~~~~~~~~~~~~~~~~~~~~~~~~~~~~~~~~~~~~~~~~~~~~~~~~~~~~~~",
"~~~~~~~~~~~~~~~~~~~~~~~~~~~~~~~~~~~~~~~~~~~~~~~~~~~~~~~~~~~~~~~~~~~~~~~~~~~~~~~~~~~~~~~~~~~~~~~~~~~~~~~~~~~~~~~~~~~~~~~~~~~~~~~~",
"~~~~~~~~~~~~~~~~~~~~~~~~~~~~~~~~~~~~~~~~~~~~~~~~~~~~~!~!!!~~~~~~~~~~~!~!!!~~~~~~~~~~~~~~~~~~~~~~~~~~~~~~~~~~~~~~~~~~~~~~~~~~~~~~",
"~~~~~~~~~~~~~~~~~~~~~~~~~~~~~~~~~~~~~~~~~~~~~~~~~~!!~~~~~~~~EUUUIUTW~~~~~~~~~!!~~~~~~~~~~~~~~~~~~~~~~~~~~~~~~~~~~~~~~~~~~~~~~~~~",
"~~~~~~~~~~~~~~~~~~~~~~~~~~~~~~~~~~~~~~~~~~~~~~!~~~~~~LVxhae73,,-::,56ephcVL!~~~~~!~~~~~~~~~~~~~~~~~~~~~~~~~~~~~~~~~~~~~~~~~~~~~~",
"~~~~~~~~~~~~~~~~~~~~~~~~~~~~~~~~~~~~~~~~~~~!!~~~WSxa5=#OOO#$$&$&&$&$##OOO#-6pxSW~~~!~~~~~~~~~~~~~~~~~~~~~~~~~~~~~~~~~~~~~~~~~~~~",
"~~~~~~~~~~~~~~~~~~~~~~~~~~~~~~~~~~~~~~~~~~~~~Tmd2$XO$&=--===&=====&===-=-=&$OO&3fmT~~~!~~~~~~~~~~~~~~~~~~~~~~~~~~~~~~~~~~~~~~~~~",
"~~~~~~~~~~~~~~~~~~~~~~~~~~~~~~~~~~~~~~~!~~~Bd,#O$=-===*&*&=&=&*&&=&*==&*=&=====$X#,dB!~~~~~~~~~~~~~~~~~~~~~~~~~~~~~~~~~~~~~~~~~~",
"~~~~~~~~~~~~~~~~~~~~~~~~~~~~~~~~~~~~~!~~Pz7#O$==&===*&====&=*&===&=*&==**=&*=&=&===X#6zU~~!~~~~~~~~~~~~~~~~~~~~~~~~~~~~~~~~~~~~~",
"~~~~~~~~~~~~~~~~~~~~~~~~~~~~~~~~~~~!~~Lj,O$===&==&=&*=&*&*=&*=&*&&*=*=&&&==*&==&=&===$X,jP~~~~~~~~~~~~~~~~~~~~~~~~~~~~~~~~~~~~~~",
"~~~~~~~~~~~~~~~~~~~~~~~~~~~~~~~~~~~~Uj:X$-==*&=&&=*&*&=*&=*&*&=**=*&&=*=**&&=&=&*&&*==-$X-jU~~!~~~~~~~~~~~~~~~~~~~~~~~~~~~~~~~~~",
"~~~~~~~~~~~~~~~~~~~~~~~~~~~~~~~~~~!x,O&=&=&=*=&=&*====&&**====&&=*=&&*=*=&*=&=&**=&==&&==&O,x!~!~~~~~~~~~~~~~~~~~~~~~~~~~~~~~~~~",
"~~~~~~~~~~~~~~~~~~~~~~~~~~~~~~~~~B0X=-=&=&&=&=**=&&*&**==&&*&**=&&=*=*&&=*&=**&=&=*&&=&=&===O7Z~~!~~~~~~~~~~~~~~~~~~~~~~~~~~~~~~",
"~~~~~~~~~~~~~~~~~~~~~~~~~~~~~!~Eg$#-&==&**=&&=&&=*&=&&&==**&*&&=*=&*==&*=&**=&*=&*=&**=&&*===#$gW~!~~~~~~~~~~~~~~~~~~~~~~~~~~~~~",
"~~~~~~~~~~~~~~~~~~~~~~~~~~~~~~D5X&===&*&=&=*&=*=&&=&===&&&====***&=*&*&=*&=&=*&=&=*&=&=*=*&*&-=O5Z~~~~~~~~~~~~~~~~~~~~~~~~~~~~~~",
"~~~~~~~~~~~~~~~~~~~~~~~~~~!~~c$#-=*&&*==*&&*==--=---==-=*=&*&*=&==&&*&*=*=&=&&****==&=&*=&*&=&*=#&x~~~~~~~~~~~~~~~~~~~~~~~~~~~~~",
"~~~~~~~~~~~~~~~~~~~~~~~~~~~WaX==*&===&&*==&==OOOOOOOOOO&=&=*&=*&&**===*&&=***==&=&&***&=*&==&==&=*XaW~!~~~~~~~~~~~~~~~~~~~~~~~~~",
"~~~~~~~~~~~~~~~~~~~~~~~~~~P0X==*=&***&&=&*=$3kklllllkll3$=&&&*===&=&&&*=*=&&&==**&&===&*=&***&&====X0P~~~~~~~~~~~~~~~~~~~~~~~~~~",
"~~~~~~~~~~~~~~~~~~~~~~~!~G1#-=&=*&=&==**&==#w~~~~~~~~~~y#=&==*&*&=&=*=*&&=*=**&&==**&*&=*&=&==****=-#1G~!~~~~~~~~~~~~~~~~~~~~~~~",
"~~~~~~~~~~~~~~~~~~~~~~!~A:#-*&*=*=&=&*=&**=#q!!!!!!~!!!r#=*==&**=&=&=*=&&*=*=&*=&*=&*&*=*=&=&*=&&=&=-#:A~!~~~~~~~~~~~~~~~~~~~~~~",
"~~~~~~~~~~~~~~~~~~~~~!~Z=$=&==*&&=**&=*&=&=#q~~~~~~~~~~e#=*&*&===&$#=&=*=*&&=*&=&=*&==*&&=**&=*&*&=&*=&-Z~!~~~~~~~~~~~~~~~~~~~~~",
"~~~~~~~~~~~~~~~~~~~~!~S-&=&*==&*=&**=&*==&=#0~~~~~~~~!~r@=&&=&*=&&Mf.-=&**=&=&****=&=&**==&*&*===&*=&&=$-A~~~~~~~~~~~~~~~~~~~~~~",
"~~~~~~~~~~~~~~~~~~~!~H-$=&=*&*&=*&=&=*&=&&=#q~~~~~~~~~~r@==&=*=*$N~~sO-==&=**&=&=&=**&=&&*&==*&*=*&=*==-$:G~!~~~~~~~~~~~~~~~~~~~",
"~~~~~~~~~~~~~~~~~~~~P1$===&&*&*=*=&=&&**=&=#q~~~~~~~~~~r#==&&=$$N~!~~aX=&=&**=&=&=&**=&=*&*==&*&&&***&*=-$1P~~~~~~~~~~~~~~~~~~~~",
"~~~~~~~~~~~~~~~~~~~W0#==&**===*&&=***==&&==#q~~~~~~~~~~r#=&==&&N~!~!!~sX=*&=&=****&=&=**==*&*&==*==&==*&&=#qW~~~~~~~~~~~~~~~~~~~",
"~~~~~~~~~~~~~~~~~!~sX-=*=**&&&*=*=&&&==*=&=#q~~~~~~~~!~r#=&=$&N~!~~~~~~aX-&*=&=&=&*=&*=&&*=&*=&*=**&&&*=*=-Xs~!~~~~~~~~~~~~~~~~~",
"~~~~~~~~~~~~~~~~!~xX===&&&==*=*&&=*=**&&&==#q~~~~~~~~~~r#==&*N~!~~~~~~~!sX===**&=*&=&=*&&=*&*&=*&&==*=*&&=*-Xx~~~~~~~~~~~~~~~~~~",
"~~~~~~~~~~~~~~~!~S&*=&*&*=&*=*=&&*=*=&*=&==#q~~~~~~~~~~r#=&$N~!~~~~~~~~~!d$&&*==&&****==**====&&*=&*=*=&&*=&*$S~!~~~~~~~~~~~~~~~",
"~~~~~~~~~~~~~~~~W5$=*&==*&=*&&=*=*&&=*&=**=#0~~~~~~~~~~r#*&N~!~~~~~~~~~!~H*==&&**==&=&&*=&&*&**=*&=*&&=*=*&=-$5W~~~~~~~~~~~~~~~~",
"~~~~~~~~~~~~~~~~hX-=&=*=&&*=*=&&**=&=&**=&=#q~~~~~~~~!~r#*N~!~~~~~~~~~~~H,$==**&=**&*&&=*&&=&==*=&*=&&*=&*==&-Xh~~~~~~~~~~~~~~~~",
"~~~~~~~~~~~~~!~Z$=&&=&&=*=*&&=*==&=**&=&=*=#q~~~~~~~~~~eOB~!~~~~~~~~~!~K,#=&&&==&&====**==****&&=*&=*=*&=*&*&==$Z~!~~~~~~~~~~~~~",
"~~~~~~~~~~~~~~!0#=&=&&**=*=&&*=*&=&**=&=&&=#0~~~~~~~~~~rn~!~~~~~~~~~!~K,$-*=*=&**=&*&*=&&*=&=&*=&&**=*=&=&*&**=#0!~~~~~~~~~~~~~~",
"~~~~~~~~~~~~!~cX==***==&&&=*=*&&**&=&=***==#q~~~~~~~~~!K~~~~~~~~~~~~~H,$-&&=*&=**&=*&=*&&=*&=*&=*==&&&=**&===&==Xx~!~~~~~~~~~~~~",
"~~~~~~~~~~~~~T,&&=&&=**&*=&*=&*==&*=&*=&&==#q~~~~~~~~~~~~~~~~~~~~~!~K,$--&=&&=&&=&=&&*==**=&=&**&==***=&=&***&&=&,T~~~~~~~~~~~~~",
"~~~~~~~~~~~!~jX==**=&&==*&=*=*&==*&=&=*&*==#q~~~~~~~~~~~~~~~~~~~~!~J,#-&&====&&=&=&==*&*=&=**&=&**&&=&=**&=&==*&-Xk~!~~~~~~~~~~~",
"~~~~~~~~~~!~U:*==&*&*=&*==&&&&**&&****===&=#0~~~~~~~~~~~~~~~~~~~~~J,#-*&&=&&&=&=$&$==**&&=&**=&==&*=&=&**=&=&**==&-U~~~~~~~~~~~~",
"~~~~~~~~~~~~kX=**&==*&=*&**=*==&*==&=&&*=*=#q~~~~~~~~~~~~~~~~~~!~K,$=&==**&==&-O6FyO-&==**&=&=**=*&=**&=&=**&=&=*-Ok~!~~~~~~~~~~",
"~~~~~~~~~~~U,=&=&*==&*=&=**&*&&=&==*=**&&*=#q~~~~~~~~~~~~~~~~~~~J,#-=&=&&=&*==#5P~EeO-&&&*==&*=&&&*=*=&&**=&=&**&=$,T~~~~~~~~~~~",
"~~~~~~~~~!~zO-&&=*&*&=*&&&====****&&&&==&==#q~~~~~~~~~~~~~~~~!~K,#=&&==&=&=&=#5L~!~WrO-==*&*&=*&*=*&&=*==&=**&=&&--Ox~!~~~~~~~~~",
"~~~~~~~~~~!0#==&=&*&**==*=&*&*=&=&*=*=&***=#0~~~~~~~~~~~~~~~~~K,$-&=&=&=&=&-@2P~~~!~WrO-=**&**===*=&&*=*&=&**=&==&=#7!~~~~~~~~~~",
"~~~~~~~~~~V#=&=**&===&&**&=*&=*&=*&=*&=*=&=#q~~~~~~~~~~~~~~!~H,#-==&*&&==&-O5P~~~~~~~WyO=&===&&*&&=*=*&&**&=&=**====#V~!~~~~~~~~",
"~~~~~~~~~~dX==&==&***&&===&*&*==&&*=*=&&&==#q~~~~~~~~~~~~~!~K,$-=**&==&*&-#5L~!~~~~~~~EeX==*&==**=&*=&*==&*=&*=&&&*=Of~~~~~~~~~~",
"~~~~~~~~~E,==&*&*&=&==**&*&==*&**=*&&=*=*==#q~~~~~~~~~~~~!~J,#-=&&==&*&=-X5P~~~~~~~~~~~Wu$=&**&&*&=*=*&==*&=&=*&&=&==,T~~~~~~~~~",
"~~~~~~~!~mO-=*=&*=&=&*=&*&*==&*&=*=&&*=*=&=#0~~~~~~~~~~~~~J,#-=**=&*&=*=X6P~~~~~~~~~~~!~v#=*=&*===&&&&**&&****===*=&-Om~!~~~~~~~",
"~~~~~~~~~dO=&&=*&=**&=*&==*&*&==&&=*=*&&=*=#q~~~~~~~~~~!~K,$=*&&*&=&=&=#5P~!~~~~~~~~~!~n$&=&=*&=&**=*==&*==&=&&*&&=*=Od~~~~~~~~~",
"~~~~~~~~!2$=&==&*=&*==&**=&&*=&**=&*==&*&*=#q~~~~~~~~~!~K,$=&=*===&*&-#5L~!~~~~~~~~~!~n$&=&==&**=**&*&&=*&&=&==***=&&$5!~~~~~~~~",
"~~~~~~!~F$=&=&*&*&=*&*&=&=*=*&=**&=*&*&==*=#q~~~~~~~~~~G,$--=&&=&*&=-$6P~~~~~~~~~~~!~n#*=&=&*&=&&&====**==****&&=&=*=&$S~~~~~~~~",
"~~~~~~!~xO==&*====&&*&*=&*=*==&&==&&*&*==&=#q~~~~~~~~~~yX=*&&&=&&=*-O3L~!~~~~~~~~~!~n#*=&=&**=&=*=&*&*=&&*=&=&*=&=&*==Xx~!~~~~~~",
"~~~~~~~~aO=&=&&*&**===*&=*&&&**=&**===*&*&=#q~~~~~~~~~~r#===&==&=&=#5P~~~~~~~~~~~!~n#==&**&=&=***&=*&=*&&=*&=*&=**&==-Oa~!~~~~~~",
"~~~~~~~!6$&=*&&==**&&&*=&*===**&=**&&&*=*==#0~~~~~~~~~~r@=&&&==&&-X5P~!~~~~~~~~~!~n#&=&==&*=&*=&==&*&*==**=&=&**=&*=&=$6!~~~~~~~",
"~~~~~!~L-&=&==**&&==*=*&=*&*&&==&&==*=*&&==#q~~~~~~~~!~r@==&&=&==#5L~!~~~~~~~~~!~n$&==**=*&=&=*&&*&==*&*=&=**&=&=*&==&&-L~!~~~~~",
"~~~~~!~B#=&=&*=&*=&*=*=&=&*&*=&**=&*=*=&&*=#q~~~~~~~~~~r#==*=&&-#6P~~~~~~~~~~~!~n$&=**=&&&****==*&*==&*&&=&**=&=&&**&*=#B~~~~~~~",
"~~~~~~~xO=**&=*&*&=*&&=**&==*&=**&=*&&=*===#q~~~~~~~~~~r#=&&=*-#2P~~~~~~~~~~~!~n#*=*&=*&*==&=&&*==*&*&==**&=&=***==&=&-Oc~!~~~~~",
"~~~~~!~hO-==&*====&*&*==&&*=*=&&==&*&*==&&=#q~~~~~~~~~~r#-&=&-#2P~~~~~~~~~~~!~n$&=**=&*=*&&=&==*&*=&**=&&*==&*=&=**&*==Oh~!~~~~~",
"~~~~~!~pO-=*=*&*&*&==*&**=*&&=*=&*&==*&**==#q~~~~~~~~!~w@&=&&@5P~!~~~~~~~~~!~n$&=&=&=*&===****&&&=*&=&=*=*&*&=*&&&====-Op~!~~~~~",
"~~~~~~~e#=&*=&*&*&*==&*&=*=&&*=**&*==&*&&==#q~~~~~~~~~~r@=&-O5P~!~~~~~~~~~!~n#&=*=&=&&**&*=&=&*=**==&=&*=&*&**==*=&*&*=#e~~~~~~~",
"~~~~~~~6#=&=*&====*&*&==&&=*=*&&==*&*&==**=#0~~~~~~~~~~r@--#5P~~~~~~~~~~~!~n$*=*&=***==&&=*&=*&==&&***&=*&===&&**&=*&==#6~~~~~~~",
"~~~~~~W3$==&*=&*&*=&*=&**=&*=&*=&*=&*=&*=&=#q~~~~~~~~!~r@-O5P~!~~~~~~~~~!~n#&=&**=&&&==***=&=&***&&===&*=&***&&===&*=&=$3W~~~~~~",
"~~~~~~T,$=*&*&=*&=*&*&=**&=*=*&=&=*&*&=*=*=#q~~~~~~~~~~r$$5P~~~~~~~~~~~!~n#*==&=&=*=**&&=&=**&=&==**&*&=*&=&==**&*&=*&&&,T~~~~~~",
"~~~~~~I>&&====&&**====&&==&&&&****====&&&&=#q~~~~~~~~!~r.6P~!~~~~~~~~~!~n#*=*&*=&*=*=&*=&=&**=&=&*=&*&*=*=&=&*=&*&*=*=**:U~~~~~~",
"~~~~~~I:&=&*&**==&&*&**=&**=*==&=&&*&**=*==#q~~~~~~~~~~0,P~!~~~~~~~~~!~n#==&==*&=*&&=*&=**&=&=**&=*&==*&&=**&=*&==*&**=*>U~~~~~~",
"~~~~~~U>&=*&*&&=&==*=**&=**&*&&==**&*&&=&==#0~~~~~~~~~~dH~~~~~~~~~~~!~n#&==&**=&&*==&*=&**=&=&**=&*=&&*==&**=&*=&&*=*=&&-U~~~~~~",
"~~~~~~U:&&====****&&&&==&&====**&&====***==#q~~~~~~~~~!!~~~~~~~~~~~!~n#==&*&=&=*=*&*&=*&=&=**&=&=*&=*=*&*&=&=*&=*=*&&==&:U~~~~~~",
"~~~~~~T,$=&*&*=&=&*=*=&**=&*&*=&*=&*&*=&=&=#q~~~~~~~~~~~~~~~~~~~~~!~n$*&=&==&=&*=&*&**==&=&**=&=&&**=*=&*=&=&&**=*=&&*=&,T~~~~~~",
"~~~~~~W3$&=*&=*&=*&=*&=**&=*&=*&*&=*&=*&=*=#q~~~~~~~~~~~~~~~~~~~~!~n#*==&=&***&=*&===&&***&=&=***==&&&=*&=***==&&&=*=**$3!~~~~~~",
"~~~~~~!6$=*=&*==&&*=*=&&==&*&*====&*&*==&&=#q~~~~~~~~~~~~~~~~~~~!~n#&=&**&&===&*=&***&&==&*=&*=&&==***=&*=&&&==**=&*=&=#6~~~~~~~",
"~~~~~~~e#=*&=*&**=*&&=*=&*&==*&*&*&==*&**==#q~~~~~~~~~~~~~~~~~~!~n#&===*==**&*&=*&=&==**=*&=&=*&**&&=&=*&=*=**&&*&=*=*=$w~~~~~~~",
"~~~~~~~aO==&=&*&=*=&&*=**&*==&*&*&*==&*&&==#q~~~~~~~~~~~~~~~~~!~n$*=&=&&&*=&*&*=*=&=&*=&&&****===&*=&=&*&*=*=&*===&&&&=Op~!~~~~~",
"~~~~~!~hO==**&==&&=*=*&&==*&*&====*&*&==**=#0~~~~~~~~~~~~~~~~!~n#&===&*=&=*&==*&&=**&=*&*==&=&&*=*&=**&==*&&=*&=&**=*=-Oh~!~~~~~",
"~~~~~!~cX-=&&=&**=&*==&**=&&*=&*&*=&**=&&*=#q~~~~~~~~~~~~~~~!~n$*=*&*&&=*=&*==&*=&**=&*=*&&=&==*&&*=*=&&**=&=&**&==&=&-Xc~!~~~~~",
"~~~~~!~V#=&=*&=**&=*&*&=&=*=*&=*&=*&=&=*=*=#q~~~~~~~~~~~~~~!~n#&=&====***&=*&*&=*&=&=*&===****&&*=*&&=*==&=**&=&**&&&==#V~!~~~~~",
"~~~~~~~L=&=&==&&==&&*&*=&*=*==&&**==&=&*=&=#q~~~~~~~~~~~~~!~n#*=*=&*&*=&==&&*&*=*=&=&&**&*=&=&*==*=&&*=*&=&**=&==&&===&-L~~~~~~~",
"~~~~~~~!6$&=&**=&**===*&=*&&&**==&&***&=*&=#q~~~~~~~~~~~~!~n$*==*&=*&=*&&**===*&&=***==&&=*&=*&=&&=*=*&&**&=&=**=*=&=&$6!~~~~~~~",
"~~~~~~!~aO-=&==*=**&&&*=&*===**&*&&===&**==#0~~~~~~~~~~~!~n#&=&===&*&*===**&&&*=*=&&&==***=&=&***=&*=&*==&*=&*=&&&*===Oa~~~~~~~~",
"~~~~~~!~xX-=**&&&&==*=*&=*&*&&====**&*&=&==#q~~~~~~~~~~!~n#===**&*&==*&*&&==*=*&&=*=**&&=&=**&=&*&=*=*&==*&=&=*&*=*&&-Ox~!~~~~~~",
"~~~~~~~~F$&==&*=*=&*=*=&=&*&*=&*&*=&*&*=&*=#q~!~~~~~~~~~n#*=**=&*&*==&*&*=&*=*=&&*=*=&*=&=&**=&===&&&&**&&****===*=&&=$D~~~~~~~~",
"~~~~~~~~!3$&=*&=*&=*&&=**&==*&=*&=*&==*&===#q~~~~~~~~~~n#&=*&=*&==*&*&==*&=*&&=*=*&&=*&=**&=&=**&**=*==&*==&=&&*&&=*=$3W~~~~~~~~",
"~~~~~~~!~dO-=&&==&**=&*=&&*=*=&&**=&=&**=&=#q~~~~~~~~~~q@-&=&*==&*=&**=&*=&&*=&*=&*=&&*=&*==&*=&=**&*&&=*&&=&==***=&=Xf~~~~~~~~~",
"~~~~~~~!~MO===*&*&=&=*&=*=*&&=*==&=**&=&=*=#q~~~~~~~~~~y@&=&=*&*&=*&=&=*&=*=*&=*=*&=*=*&=*&*&=*&&&====**==****&&=&=*=#M~!~~~~~~~",
"~~~~~~~~~T,&=*=&*=&=&&**=*=&&*=*&=&**=&=&&=#0~~~~~~~~~~r@=&==&*&**==&=&*&*=*==&&&&**=*=&=&*&**==*=&*&*=&&*=&=&*==&&=&,T~~~~~~~~~",
"~~~~~~~~~~fO=&=*&=***==&&&=*=*&&**&=&=***==#q~~~~~~~~!~w@==&*&===&&***&==*&&&**=*==&&&=**&===&&**&=*&=*&&=*&=*&=&=&=Od~~~~~~~~~~",
"~~~~~~~~!~V#=&&=*=&&&==**=&*=&*==&*=&*=&&==#q~~~~~~~~!~r@==&*=&**&&===&*&*===**&&==***=&=&***&&===&*&*==**=&=&***=&=#B~!~~~~~~~~",
"~~~~~~~~~~~6$==&&=*=**&&*&=*=*&==*&=&=*&*==#q~~~~~~~~~~r@=&&*&=*==**&*&==*&*&&==**&&=&=**&=&==**&*&==*&*=&=**&=&*&=$7~~~~~~~~~~~",
"~~~~~~~~~!~xO=&=&*=*=&*===&&&&**&&****===&=#0~~~~~~~~~~r@=&===&&&*=&*&*==&*&*=&*=&*=&=&**=&=&*=&*&*==&*&&=&**=&==&=Xx~!~~~~~~~~~",
"~~~~~~~~~~~T,$=&=*&&=*&=&**=*==&*==&=&&*=*=#q~~~~~~~~!~r@==&&**=&=*&==*&*&==*&=*=*&=**&=&=**&=*&==*&*&==**&=&=**&=&,U~~~~~~~~~~~",
"~~~~~~~~~~!~kX-=*=&&*=&**&&=&==*&==*=**&&*=#q~~~~~~~~!~r#=*&*&&=**=&*=&&**=&*=&&&&*==&**==&*&*==&*=&**=&=&**=&=&==Ok~!~~~~~~~~~~",
"~~~~~~~~~~~~I:==&=*=*&=*==****&&**&&&&==&==#q~~~~~~~~~~r@=====**=&=*&=*==&=*&=*=*=*&*&=&&*&==*&*&=*&=&=**&=&=**&&*:I~~~~~~~~~~~~",
"~~~~~~~~~~~!~kX=&**&==&&&*=&=&*==&*=*=&***=#0~~~~~~~~~~r@=&*&*=&&=&*&&&=&=&*&&&==*=&&==&*&*==&*&**==&=&**=&=&&*=-Xk~!~~~~~~~~~~~",
"~~~~~~~~~~~~~T,$=&==&**=&=*&=*&==*&=*&=*=&=#q~~~~~~~~!~r@==*&=&=**&==&=&**&==&=&&&=*&=&===*&*&===&&***&=&=***==&&,U~~~~~~~~~~~~~",
"~~~~~~~~~~~~!~xX-&=&&==***=&=&**&&*=*=&&&==#q~~~~~~~~~~y#--==-=-===-=-=====-=-=======--==&=&*=&**&&===&**=&&&==-Xc~!~~~~~~~~~~~~",
"~~~~~~~~~~~~~~!0#=&=**&&=&=**&=&*=*&&=*=*==#q~~~~~~~~~~0 #O##O#OX##O#O#OO##O#O#O#O#O#OO##**&*&=*==**&*&=&=*=*&=#0!~~~~~~~~~~~~~~",
"~~~~~~~~~~~~~!~Z#==*=&*=&=&**=&==*=&&*=*=&=#0~~~~~~~~~~kyppiiiiipiiiiipipiiiiipiiipiiiiir*====&&&*=&*&*=&*=*=&=#Z~!~~~~~~~~~~~~~",
"~~~~~~~~~~~~~~~~hX-&=*&=**&=&=**&&=*=*&&=*=#q~~~~~~~~~~~~~~~~~~~~~~~~~~~~~~~~~~~~~~~~~~~K&**&**=&=*&==*&=*&&=-Xh~~~~~~~~~~~~~~~~",
"~~~~~~~~~~~~~~~!W5$=&&==&*=&**=&*=&&*=&*===#q~~~~~~~~~~~!!~!!~!~~!!~!~!!!~!!~!~!~!~!!~!~F&*&*&&=*=&*==&*=&*==#6W~~~~~~~~~~~~~~~~",
"~~~~~~~~~~~~~~~~~S$&==&*&=*&=&=*&=*=*&=*&*=#q~~~~~~~~~~~~~~~~~~~~~~~~~~~~~~~~~~~~~~~~~!~G$====***&=*&*&=*&=&=$S~!~~~~~~~~~~~~~~~",
"~~~~~~~~~~~~~~~~!~cX-==&**==&=&*&*=*==&&=*=#q~!~~~~~~~~~~~~~~~~~~~~~~~~~~~~~~~~~~~~~~~!~F&&*&*=&==&&*&*=&=&-Xx~!~~~~~~~~~~~~~~~~",
"~~~~~~~~~~~~~~~~~!~dO-&==&&***&==*&&&**=&&=#q~~~~~~~~~~~~~~~~~~~~~~~~~~~~~~~~~~~~~~~~~~~F&=*&=*&&**===*&==-Od~!~~~~~~~~~~~~~~~~~",
"~~~~~~~~~~~~~~~~~~~W0#-&*&&===&*&*===**&*==#q~~~~~~~~~~~~~~~~~~~~~~~~~~~~~~~~~~~~~~~~~~~F$==&*==&==*&&*===#0W!~~~~~~~~~~~~~~~~~~",
"~~~~~~~~~~~~~~~~~~!~P,$-==**&*&==*&*&&==*&=#q~~~~~~~~~~~~~~~~~~~~~~~~~~~~~~~~~~~~~~~~~!~G*=*=*&***&&*=*&-$1P~~~~~~~~~~~~~~~~~~~~",
"~~~~~~~~~~~~~~~~~~~~~G-$=&=&*&*==&*&*=&*===#q~~~~!~~~!~~~~~!~~~~~!~~~~!~~~~~~!~~~!~~!~~~G$**=&*&=&*==&==$:G~~~~~~~~~~~~~~~~~~~~~",
"~~~~~~~~~~~~~~~~~~~~~~S=$=*&==*&*&==*&=*&*=#q~~~~~~~~~~~~~~~~~~~~~~~~~~~~~~~~~~~~~~~~~~~G&&=*&===*&=&==$-A~!~~~~~~~~~~~~~~~~~~~~",
"~~~~~~~~~~~~~~~~~~~~~~~Z=$-=&*=&&*==&*=&*&=#0~!!!!~!!~!!~!~!!~!!!~!~!!~!!~!!!~!~!~!~!!!~F&*&*=&*&&*===$-A~~~~~~~~~~~~~~~~~~~~~~~",
"~~~~~~~~~~~~~~~~~~~~~~!~D:#==&=*=*&*&=*&==**=66666666666566666666566665666665666656666552=*=*&=**=*&-$:A~!~~~~~~~~~~~~~~~~~~~~~~",
"~~~~~~~~~~~~~~~~~~~~~~~!~G1#-=&*=&*&**==&*=&=#$$$##$$#$#$$###$$##$$#$$$##$$##$$##$#$$#$$$&*&==&&=&=-O1G~!~~~~~~~~~~~~~~~~~~~~~~~",
"~~~~~~~~~~~~~~~~~~~~~~~~!~P0X-&=*&===&&*&=*&=============================================&==&**=&=-X0P~~~~~~~~~~~~~~~~~~~~~~~~~~",
"~~~~~~~~~~~~~~~~~~~~~~~~~!~WsX*=&=&*&==***=&=&**=**=&*=&&=&*=&*=&==***=&&*===**&*&&===&*=&**=*&===XsW~!~~~~~~~~~~~~~~~~~~~~~~~~~",
"~~~~~~~~~~~~~~~~~~~~~~~~~~~~~z&#-==&**&&=&=**&=&=*&=&=*&*&=*=*&=**&&=&=*=*&*&&====**&*&=*&=&&&=-#$z~~!~~~~~~~~~~~~~~~~~~~~~~~~~~",
"~~~~~~~~~~~~~~~~~~~~~~~~~~~~~~A6O&-&=&*=&=&**=&=&&****====&&&&**=&*=&=&*=&*&*=&*&*=&*&*=*==&*==X6A~~~~~~~~~~~~~~~~~~~~~~~~~~~~~~",
"~~~~~~~~~~~~~~~~~~~~~~~~~~~~~!~Eg$#==*&=**&=&=***==&=&&*&**=*==&=*&=**&=*&==*&=*&=*&==*&&=&=-##gW~!~~~~~~~~~~~~~~~~~~~~~~~~~~~~~",
"~~~~~~~~~~~~~~~~~~~~~~~~~~~~~~!~~V0O&==**=&**=&&&==*=**&=**&*&&=&&*=*=&&*=&*==&**=&&*==&=&-&X0B~~!~~~~~~~~~~~~~~~~~~~~~~~~~~~~~~",
"~~~~~~~~~~~~~~~~~~~~~~~~~~~~~~~~~~!x,X=-=&&=&=*=**&&&&==&&====***=*&&=*=*&=*&*&=&=*=*&&==&X,c!~~~~~~~~~~~~~~~~~~~~~~~~~~~~~~~~~~",
"~~~~~~~~~~~~~~~~~~~~~~~~~~~~~~~~~!~~Uj:O&==*=&**=&*=*=&**=&*&*=&=*=&&*=*==&&*&*=&*&===-$O:jU~~~~~~~~~~~~~~~~~~~~~~~~~~~~~~~~~~~~",
"~~~~~~~~~~~~~~~~~~~~~~~~~~~~~~~~~~~!~~Lj,X$==&===*&=*&=**&=*&=*&&&=*=*&&&**===*&=&===#O,jL~~!~~~~~~~~~~~~~~~~~~~~~~~~~~~~~~~~~~~",
"~~~~~~~~~~~~~~~~~~~~~~~~~~~~~~~~~~~~~~~~Ux0#X&==&&=&&=&&==&*&*==*=&=&**==&=&&=&===$O#6cU~~!~~~~~~~~~~~~~~~~~~~~~~~~~~~~~~~~~~~~~",
"~~~~~~~~~~~~~~~~~~~~~~~~~~~~~~~~~~~~~~~!~~!Bd,#O$=-===*=&*&==&&**&=&&===&=&===&$#O,fB!~~~~~~~~~~~~~~~~~~~~~~~~~~~~~~~~~~~~~~~~~~",
"~~~~~~~~~~~~~~~~~~~~~~~~~~~~~~~~~~~~~~~~~!~~~Tmd3$OO$&==--====*===&====-===$OX$3dmT~~~!~~~~~~~~~~~~~~~~~~~~~~~~~~~~~~~~~~~~~~~~~",
"~~~~~~~~~~~~~~~~~~~~~~~~~~~~~~~~~~~~~~~~~~~!!~~~!Sca6=#X#O##$$&*&$&$##OOO#-6axS!~~~~!~~~~~~~~~~~~~~~~~~~~~~~~~~~~~~~~~~~~~~~~~~~",
"~~~~~~~~~~~~~~~~~~~~~~~~~~~~~~~~~~~~~~~~~~~~~~!!~~~~!LBchpe61,:>:,,36ephxVK!~~~~!~~~~~~~~~~~~~~~~~~~~~~~~~~~~~~~~~~~~~~~~~~~~~~~",
"~~~~~~~~~~~~~~~~~~~~~~~~~~~~~~~~~~~~~~~~~~~~~~~~~~!!~~~~~~~~WEUPIUTE~~~~~~~~~!!~~~~~~~~~~~~~~~~~~~~~~~~~~~~~~~~~~~~~~~~~~~~~~~~~",
"~~~~~~~~~~~~~~~~~~~~~~~~~~~~~~~~~~~~~~~~~~~~~~~~~~~~~~~!!!~~~~~~~~~~~~~!!~~~~~~~~~~~~~~~~~~~~~~~~~~~~~~~~~~~~~~~~~~~~~~~~~~~~~~~",
"~~~~~~~~~~~~~~~~~~~~~~~~~~~~~~~~~~~~~~~~~~~~~~~~~~~~~~~~~~~~~~~~~~~~~~~~~~~~~~~~~~~~~~~~~~~~~~~~~~~~~~~~~~~~~~~~~~~~~~~~~~~~~~~~",
"~~~~~~~~~~~~~~~~~~~~~~~~~~~~~~~~~~~~~~~~~~~~~~~~~~~~~~~~~~~~~~~~~~~~~~~~~~~~~~~~~~~~~~~~~~~~~~~~~~~~~~~~~~~~~~~~~~~~~~~~~~~~~~~~",
"~~~~~~~~~~~~~~~~~~~~~~~~~~~~~~~~~~~~~~~~~~~~~~~~~~~~~~~~~~~~~~~~~~~~~~~~~~~~~~~~~~~~~~~~~~~~~~~~~~~~~~~~~~~~~~~~~~~~~~~~~~~~~~~~",
"~~~~~~~~~~~~~~~~~~~~~~~~~~~~~~~~~~~~~~~~~~~~~~~~~~~~~~~~~~~~~~~~~~~~~~~~~~~~~~~~~~~~~~~~~~~~~~~~~~~~~~~~~~~~~~~~~~~~~~~~~~~~~~~~",
"~~~~~~~~~~~~~~~~~~~~~~~~~~~~~~~~~~~~~~~~~~~~~~~~~~~~~~~~~~~~~~~~~~~~~~~~~~~~~~~~~~~~~~~~~~~~~~~~~~~~~~~~~~~~~~~~~~~~~~~~~~~~~~~~"
};
