<?xml version="1.0" encoding="UTF-8" standalone="no"?>
<svg
   width="22px"
   height="22px"
   viewBox="0 0 22 22"
   version="1.1"
   id="svg43327"
   sodipodi:docname="ic-check-liliac-indeterminate.svg"
   inkscape:version="1.2.1 (9c6d41e410, 2022-07-14)"
   xmlns:inkscape="http://www.inkscape.org/namespaces/inkscape"
   xmlns:sodipodi="http://sodipodi.sourceforge.net/DTD/sodipodi-0.dtd"
   xmlns="http://www.w3.org/2000/svg"
   xmlns:svg="http://www.w3.org/2000/svg">
  <defs
     id="defs43331" />
  <sodipodi:namedview
     id="namedview43329"
     pagecolor="#ffffff"
     bordercolor="#000000"
     borderopacity="0.25"
     inkscape:showpageshadow="2"
     inkscape:pageopacity="0.0"
     inkscape:pagecheckerboard="0"
     inkscape:deskcolor="#d1d1d1"
     showgrid="false"
     inkscape:zoom="37"
     inkscape:cx="10.986486"
     inkscape:cy="11"
     inkscape:window-width="1920"
     inkscape:window-height="1017"
     inkscape:window-x="-8"
     inkscape:window-y="456"
     inkscape:window-maximized="1"
     inkscape:current-layer="svg43327" />
  <!-- Generator: Sketch 54.1 (76490) - https://sketchapp.com -->
  <title
     id="title43318">ic-check-active</title>
  <desc
     id="desc43320">Created with Sketch.</desc>
  <g
     id="Page-1"
     stroke="none"
     stroke-width="1"
     fill="none"
     fill-rule="evenodd">
    <g
       id="ic-check-active"
       transform="translate(-1.000000, -1.000000)">
      <g
         id="Group_8199"
         transform="translate(1.000000, 1.000000)"
         fill="#B088FF">
        <path
           d="M19.556,0 L2.444,0 C1.09603898,0.0043907874 0.0043907874,1.09603898 4.4408921e-16,2.444 L4.4408921e-16,19.556 C0.0043907874,20.903961 1.09603898,21.9956092 2.444,22 L19.556,22 C20.903961,21.9956092 21.9956092,20.903961 22,19.556 L22,2.444 C21.9956092,1.09603898 20.903961,0.0043907874 19.556,0 Z M3,10 L19,10 L19,13 L3,13 L3,10 Z"
           id="check_on_light"
           style="fill:#57c7ff;fill-opacity:1" />
      </g>
      <polygon
         id="Rectangle_4538"
         points="0 0 24 0 24 24 0 24" />
    </g>
  </g>
</svg>
