<?xml version="1.0" encoding="UTF-8" standalone="no"?>
<svg
   id="ic_piv"
   width="24"
   height="24"
   viewBox="0 0 24 24"
   version="1.1"
   sodipodi:docname="ic-coin-piv.svg"
   inkscape:version="1.2.1 (9c6d41e410, 2022-07-14)"
   xmlns:inkscape="http://www.inkscape.org/namespaces/inkscape"
   xmlns:sodipodi="http://sodipodi.sourceforge.net/DTD/sodipodi-0.dtd"
   xmlns="http://www.w3.org/2000/svg"
   xmlns:svg="http://www.w3.org/2000/svg">
  <sodipodi:namedview
     id="namedview61389"
     pagecolor="#ffffff"
     bordercolor="#000000"
     borderopacity="0.25"
     inkscape:showpageshadow="2"
     inkscape:pageopacity="0.0"
     inkscape:pagecheckerboard="0"
     inkscape:deskcolor="#d1d1d1"
     showgrid="false"
     showguides="true"
     inkscape:zoom="23.982705"
     inkscape:cx="19.701698"
     inkscape:cy="14.301973"
     inkscape:window-width="1920"
     inkscape:window-height="1017"
     inkscape:window-x="-8"
     inkscape:window-y="456"
     inkscape:window-maximized="1"
     inkscape:current-layer="ic_piv">
    <sodipodi:guide
       position="26.918919,12"
       orientation="0,-1"
       id="guide62480"
       inkscape:locked="false" />
    <sodipodi:guide
       position="12.029484,22.909091"
       orientation="1,0"
       id="guide62484"
       inkscape:locked="false" />
    <sodipodi:guide
       position="13.503686,22.02457"
       orientation="0,-1"
       id="guide62486"
       inkscape:locked="false" />
    <sodipodi:guide
       position="13.739558,2.004914"
       orientation="0,-1"
       id="guide62488"
       inkscape:locked="false" />
    <sodipodi:guide
       position="1.97543,7.7542998"
       orientation="1,0"
       id="guide62490"
       inkscape:locked="false" />
    <sodipodi:guide
       position="21.995086,8.963145"
       orientation="1,0"
       id="guide62492"
       inkscape:locked="false" />
  </sodipodi:namedview>
  <defs
     id="defs61381">
    <style
       type="text/css"
       id="style61379">
            .cls-1{fill:#5c4b7d}.cls-2{fill:none}
        </style>
    <pattern
       id="EMFhbasepattern"
       patternUnits="userSpaceOnUse"
       width="6"
       height="6"
       x="0"
       y="0" />
  </defs>
  <path
     id="Rectangle_4543"
     d="M0 0h24v24H0z"
     class="cls-2"
     data-name="Rectangle 4543" />
  <path
     style="fill:#2d3b85;fill-opacity:1;fill-rule:nonzero;stroke:none;stroke-width:0.0950348"
     d="m 11.975135,2.0127189 c -5.5120153,0 -9.9786473,4.4666323 -9.9786473,9.9786471 0,5.512013 4.466632,9.978646 9.9786473,9.978646 5.512014,0 9.978646,-4.466633 9.978646,-9.978646 0,-5.5120148 -4.466632,-9.9786471 -9.978646,-9.9786471 z m 4.339918,15.3639481 c 0,1.80566 0,1.80566 0,1.80566 -7.6978133,0 -7.6978133,0 -7.6978133,0 0,-0.09503 0,-0.09503 0,-0.09503 0,-1.710625 0,-1.710625 0,-1.710625 0,-12.9880799 0,-12.9880799 0,-12.9880799 1.8056603,0 1.8056603,0 1.8056603,0 0,2.6292944 0,2.6292944 0,2.6292944 2.027408,-2.0274077 2.027408,-2.0274077 2.027408,-2.0274077 1.298808,1.298808 1.298808,1.298808 1.298808,1.298808 C 10.4229,9.583824 10.4229,9.583824 10.4229,9.583824 c 0,2.629294 0,2.629294 0,2.629294 4.625023,-4.593345 4.625023,-4.593345 4.625023,-4.593345 1.26713,1.2671298 1.26713,1.2671298 1.26713,1.2671298 C 10.4229,14.779056 10.4229,14.779056 10.4229,14.779056 c 0,2.597616 0,2.597616 0,2.597616 z"
     id="path62497" />
</svg>
