<?xml version="1.0" encoding="UTF-8" standalone="no"?>
<svg
   width="24"
   height="24"
   viewBox="0 0 24 24"
   version="1.1"
   id="svg28605"
   sodipodi:docname="ic-check-active.svg"
   inkscape:version="1.2.1 (9c6d41e410, 2022-07-14)"
   xmlns:inkscape="http://www.inkscape.org/namespaces/inkscape"
   xmlns:sodipodi="http://sodipodi.sourceforge.net/DTD/sodipodi-0.dtd"
   xmlns="http://www.w3.org/2000/svg"
   xmlns:svg="http://www.w3.org/2000/svg">
  <sodipodi:namedview
     id="namedview28607"
     pagecolor="#ffffff"
     bordercolor="#000000"
     borderopacity="0.25"
     inkscape:showpageshadow="2"
     inkscape:pageopacity="0.0"
     inkscape:pagecheckerboard="0"
     inkscape:deskcolor="#d1d1d1"
     showgrid="false"
     inkscape:zoom="33.916667"
     inkscape:cx="11.985258"
     inkscape:cy="12"
     inkscape:window-width="1920"
     inkscape:window-height="1017"
     inkscape:window-x="-8"
     inkscape:window-y="456"
     inkscape:window-maximized="1"
     inkscape:current-layer="svg28605" />
  <defs
     id="defs28599">
    <style
       type="text/css"
       id="style28597">
            .cls-1{fill:#5c4b7d;fill-rule:evenodd}.cls-2{fill:none}
        </style>
  </defs>
  <g
     id="check_active"
     transform="translate(-290 -244)">
    <g
       id="Group_8199"
       data-name="Group 8199"
       transform="translate(291 245)">
      <path
         id="check_on_light"
         d="M22.556 3H5.444A2.452 2.452 0 0 0 3 5.444v17.112A2.452 2.452 0 0 0 5.444 25h17.112A2.452 2.452 0 0 0 25 22.556V5.444A2.452 2.452 0 0 0 22.556 3zm-11 17.111l-6.112-5.876 1.712-1.645 4.4 4.231 9.289-8.932 1.711 1.645-11 10.577z"
         class="cls-1"
         transform="translate(-3 -3)"
         style="fill:#2d3b86;fill-opacity:1" />
    </g>
    <path
       id="Rectangle_4538"
       d="M0 0h24v24H0z"
       class="cls-2"
       data-name="Rectangle 4538"
       transform="translate(290 244)" />
  </g>
</svg>
