<?xml version="1.0" encoding="UTF-8" standalone="no"?>
<!-- Generator: Adobe Illustrator 23.1.1, SVG Export Plug-In . SVG Version: 6.00 Build 0)  -->

<svg
   version="1.1"
   id="Layer_1"
   x="0px"
   y="0px"
   width="24px"
   height="31px"
   viewBox="0 0 24 30"
   style="enable-background:new 0 0 24 30;"
   xml:space="preserve"
   sodipodi:docname="ic-nav-cold-staking.svg"
   inkscape:version="1.2.1 (9c6d41e410, 2022-07-14)"
   xmlns:inkscape="http://www.inkscape.org/namespaces/inkscape"
   xmlns:sodipodi="http://sodipodi.sourceforge.net/DTD/sodipodi-0.dtd"
   xmlns="http://www.w3.org/2000/svg"
   xmlns:svg="http://www.w3.org/2000/svg"><defs
   id="defs18214" /><sodipodi:namedview
   id="namedview18212"
   pagecolor="#ffffff"
   bordercolor="#000000"
   borderopacity="0.25"
   inkscape:showpageshadow="2"
   inkscape:pageopacity="0.0"
   inkscape:pagecheckerboard="0"
   inkscape:deskcolor="#d1d1d1"
   showgrid="false"
   inkscape:zoom="45.254834"
   inkscape:cx="16.119825"
   inkscape:cy="22.561126"
   inkscape:window-width="1920"
   inkscape:window-height="1017"
   inkscape:window-x="-8"
   inkscape:window-y="456"
   inkscape:window-maximized="1"
   inkscape:current-layer="Layer_1" />
<style
   type="text/css"
   id="style18203">
	.st0{fill:#938DA5;}
</style>
	<title
   id="title18205">Cold Staking</title>
	<desc
   id="desc18207">Created with Sketch.</desc>
	<path
   class="st0"
   d="m 21.7,22.1 -3,-1.6 2.7,-0.5 c 0.5,0 0.8,-0.5 0.5,-1.1 0,-0.5 -0.5,-0.8 -1.1,-0.5 l -4.3,1.1 -3,-1.6 3,-1.6 4.3,1.1 h 0.3 c 0.3,0 0.8,-0.3 0.8,-0.5 0,-0.5 -0.3,-0.8 -0.5,-1.1 l -2.7,-0.5 3,-1.6 c 0.5,-0.3 0.5,-0.8 0.3,-1.1 -0.3,-0.3 -0.8,-0.5 -1.1,-0.3 l -3,1.6 0.8,-2.4 c 0,-0.5 -0.3,-0.8 -0.5,-1.1 -0.5,0 -1.1,0.3 -1.1,0.5 l -1.1,3.9 -3,1.6 v -3.3 l 3.3,-3 C 16.6,9.8 16.6,9.3 16.3,9 16,8.7 15.5,8.7 14.9,9 l -1.8,2 V 7.8 C 13.1,7.3 12.8,7 12.3,7 11.8,7 11.5,7.3 11.5,7.8 V 11 L 9.3,8.9 C 9,8.6 8.5,8.6 7.9,8.9 7.6,9.2 7.6,9.7 7.9,10 l 3.3,3 v 3.3 L 8.2,14.7 7.1,10.6 C 7.1,10.1 6.6,9.8 6,10.1 c -0.5,0 -0.8,0.5 -0.5,1.1 l 0.8,2.4 -3,-1.6 c -0.5,-0.3 -1.1,0 -1.1,0.3 -0.3,0.3 0,0.8 0.3,1.1 l 3,1.6 -2.7,0.5 C 2.3,15.5 2,16 2.3,16.6 2.2,16.7 2.8,17 3,17 h 0.3 l 4.3,-1.1 3,1.6 -3,1.6 L 3.3,18 c -0.5,0 -1.1,0.3 -1.1,0.5 0,0.5 0.3,0.8 0.5,1.1 l 2.7,0.5 -3,1.6 c -0.5,0.3 -0.5,0.8 -0.3,1.1 0.3,0.3 0.5,0.5 0.8,0.5 h 0.5 l 2.7,-1.6 -0.8,2.7 c 0,0.5 0.3,0.8 0.5,1.1 h 0.3 c 0.3,0 0.8,-0.3 0.8,-0.5 L 8,20.9 11,19.3 v 3.3 l -3.3,3 c -0.3,0.3 -0.3,0.8 0,1.1 0.3,0.3 0.8,0.3 1.4,0 L 11,24.8 v 3.3 c 0,0.5 0.3,0.8 0.8,0.8 0.5,0 0.8,-0.3 0.8,-0.8 v -3.3 l 1.9,1.9 c 0.5,0.3 0.446724,0.317189 0.7,0.3 0.193919,-0.01316 0.5,0 0.5,-0.3 0.3,-0.3 0.3,-0.8 0,-1.1 l -3.3,-3 v -3.5 l 3,1.6 1.1,4.1 c 0,0.3 0.5,0.5 0.8,0.5 h 0.3 c 0.5,0 0.639844,-0.460938 0.5,-1.1 L 17.609674,21.561978 21.1,23.4 l 0.402344,0.09375 c 0.168999,0.03938 0.460061,-0.03329 0.662,-0.157479 0.201248,-0.148821 0.320394,-0.451365 0.243162,-0.585294 C 22.305629,22.571409 22.040805,22.267961 21.7,22.1 Z"
   id="path18209"
   style="fill:#5ba4c8;fill-opacity:1"
   sodipodi:nodetypes="cccccccccsscccccccccccccsccssscccccccccccccccccscccccsccccsccccscccccsccsssccaccccccsscccsccc" />
</svg>
