<?xml version="1.0" encoding="UTF-8" standalone="no"?>
<svg
   width="24px"
   height="40px"
   viewBox="0 0 24 40"
   version="1.1"
   id="svg20926"
   sodipodi:docname="ic-nav-dashboard.svg"
   inkscape:version="1.2.1 (9c6d41e410, 2022-07-14)"
   xmlns:inkscape="http://www.inkscape.org/namespaces/inkscape"
   xmlns:sodipodi="http://sodipodi.sourceforge.net/DTD/sodipodi-0.dtd"
   xmlns="http://www.w3.org/2000/svg"
   xmlns:svg="http://www.w3.org/2000/svg">
  <defs
     id="defs20930" />
  <sodipodi:namedview
     id="namedview20928"
     pagecolor="#ffffff"
     bordercolor="#000000"
     borderopacity="0.25"
     inkscape:showpageshadow="2"
     inkscape:pageopacity="0.0"
     inkscape:pagecheckerboard="0"
     inkscape:deskcolor="#d1d1d1"
     showgrid="false"
     inkscape:zoom="20.35"
     inkscape:cx="12.014742"
     inkscape:cy="20"
     inkscape:window-width="1920"
     inkscape:window-height="1017"
     inkscape:window-x="-8"
     inkscape:window-y="456"
     inkscape:window-maximized="1"
     inkscape:current-layer="svg20926" />
  <!-- Generator: Sketch 52.6 (67491) - http://www.bohemiancoding.com/sketch -->
  <title
     id="title20914">Dashboard</title>
  <desc
     id="desc20916">Created with Sketch.</desc>
  <g
     id="Dashboard"
     stroke="none"
     stroke-width="1"
     fill="none"
     fill-rule="evenodd">
    <g
       id="Group"
       transform="translate(1.000000, 11.000000)"
       fill="#938DA5"
       fill-rule="nonzero">
      <g
         id="Group_8812">
        <path
           d="M10,8 L0,8 L0,0 L10,0 L10,8 Z M2,6 L8,6 L8,2 L2,2 L2,6 Z"
           id="Path_18866"
           style="fill:#5ba1c8;fill-opacity:1" />
      </g>
      <g
         id="Group_8813"
         transform="translate(12.000000, 0.000000)">
        <path
           d="M10,22 L0,22 L0,0 L10,0 L10,22 Z M2,20 L8,20 L8,2 L2,2 L2,20 Z"
           id="Path_18867"
           style="fill:#5ba1c8;fill-opacity:1" />
      </g>
      <g
         id="Group_8814"
         transform="translate(0.000000, 10.000000)">
        <path
           d="M10,12 L0,12 L0,0 L10,0 L10,12 Z M2,10 L8,10 L8,2 L2,2 L2,10 Z"
           id="Path_18868"
           style="fill:#5ba1c8;fill-opacity:1" />
      </g>
    </g>
  </g>
</svg>
