<?xml version="1.0" encoding="UTF-8" standalone="no"?>
<svg
   id="ic_empty_multisend"
   width="100"
   height="100"
   viewBox="0 0 100 100"
   version="1.1"
   sodipodi:docname="img-empty-multisend.svg"
   inkscape:version="1.2.1 (9c6d41e410, 2022-07-14)"
   xmlns:inkscape="http://www.inkscape.org/namespaces/inkscape"
   xmlns:sodipodi="http://sodipodi.sourceforge.net/DTD/sodipodi-0.dtd"
   xmlns="http://www.w3.org/2000/svg"
   xmlns:svg="http://www.w3.org/2000/svg">
  <sodipodi:namedview
     id="namedview53886"
     pagecolor="#ffffff"
     bordercolor="#000000"
     borderopacity="0.25"
     inkscape:showpageshadow="2"
     inkscape:pageopacity="0.0"
     inkscape:pagecheckerboard="0"
     inkscape:deskcolor="#d1d1d1"
     showgrid="false"
     showguides="true"
     inkscape:zoom="11.511698"
     inkscape:cx="42.956303"
     inkscape:cy="43.347209"
     inkscape:window-width="1920"
     inkscape:window-height="1017"
     inkscape:window-x="-8"
     inkscape:window-y="456"
     inkscape:window-maximized="1"
     inkscape:current-layer="ic_empty_multisend">
    <sodipodi:guide
       position="50.583538,68.5043"
       orientation="1,0"
       id="guide54988"
       inkscape:locked="false" />
  </sodipodi:namedview>
  <defs
     id="defs53865">
    <style
       type="text/css"
       id="style53863">
            .cls-1{fill:#d6d6d6}.cls-2{fill:#666}.cls-3{fill:none}
        </style>
    <pattern
       id="EMFhbasepattern"
       patternUnits="userSpaceOnUse"
       width="6"
       height="6"
       x="0"
       y="0" />
  </defs>
  <g
     id="Group_9031"
     data-name="Group 9031">
    <g
       id="Group_9029"
       data-name="Group 9029">
      <path
         id="Rectangle_4683"
         d="M0 0h10v9H0z"
         class="cls-1"
         data-name="Rectangle 4683"
         transform="translate(45 18)" />
      <g
         id="Group_9028"
         data-name="Group 9028">
        <path
           id="Rectangle_4684"
           d="M0 0h6v10H0z"
           class="cls-1"
           data-name="Rectangle 4684"
           transform="translate(14 66)" />
        <path
           id="Rectangle_4685"
           d="M0 0h6v10H0z"
           class="cls-1"
           data-name="Rectangle 4685"
           transform="translate(80 66)" />
        <path
           id="Rectangle_4686"
           d="M0 0h6v10H0z"
           class="cls-1"
           data-name="Rectangle 4686"
           transform="translate(47 66)" />
      </g>
    </g>
    <g
       id="Group_9030"
       data-name="Group 9030">
      <path
         id="Rectangle_4688"
         d="M0 0h2v4H0z"
         class="cls-2"
         data-name="Rectangle 4688"
         transform="translate(67 40)" />
      <circle
         id="Ellipse_626"
         cx="1"
         cy="1"
         r="1"
         class="cls-2"
         data-name="Ellipse 626"
         transform="translate(49 72)" />
      <circle
         id="Ellipse_627"
         cx="1"
         cy="1"
         r="1"
         class="cls-2"
         data-name="Ellipse 627"
         transform="translate(82 72)" />
      <path
         id="Rectangle_4689"
         d="M0 0h4v2H0z"
         class="cls-2"
         data-name="Rectangle 4689"
         transform="translate(32 58)" />
      <path
         id="Path_18986"
         d="M16 65h-3v3H7v4h2v-2h4v7h8v-7h4v21H9V76H7v17h20V68h-6v-3h-3v-5h10v-2H16zm3 2v8h-4v-8z"
         class="cls-2"
         data-name="Path 18986" />
      <circle
         id="Ellipse_628"
         cx="1"
         cy="1"
         r="1"
         class="cls-2"
         data-name="Ellipse 628"
         transform="translate(16 72)" />
      <path
         id="Path_18987"
         d="M87 68v-3h-3v-7H51v-5h18v-5h-2v3H33V28h34v8h2v-8h4V17H59.46A5.994 5.994 0 1 0 50 9.69 5.995 5.995 0 1 0 40.54 17H27v11h4v25h18v5h-9v2h9v5h-3v3h-6v16h2V70h4v7h8v-7h4v21H42v-3h-2v5h20V68h-6v-3h-3v-5h31v5h-3v3h-6v12h2V70h4v7h8v-7h4v21H75v-7h-2v9h20V68zM71 19v7H56v-7zm-20-6a4 4 0 1 1 4 4h-4zm0 6h3v7h-8v-7h5zM45 9a4 4 0 0 1 4 4v4h-4a4 4 0 0 1 0-8zM29 26v-7h15v7H29zm23 41v8h-4v-8zm33 8h-4v-8h4z"
         class="cls-2"
         data-name="Path 18987" />
    </g>
  </g>
  <path
     id="Rectangle_4690"
     d="M0 0h100v100H0z"
     class="cls-3"
     data-name="Rectangle 4690" />
  <path
     style="fill:#666666;fill-opacity:1;fill-rule:nonzero;stroke:none;stroke-width:0.0268858"
     d="m 48.119851,43.617997 7.133704,-7.142666 -1.559377,-1.550415 -5.574327,5.574326 v -3.172527 l 4.005987,-4.005986 -1.559377,-1.559378 -2.44661,2.44661 v -3.172527 h -2.204637 v 15.71028 2.07917 0.116505 h 9.320417 v -2.195675 h -7.11578 z"
     id="path54254" />
</svg>
