<?xml version="1.0" encoding="UTF-8" standalone="no"?>
<svg
   id="ic_empty_zpiv"
   width="100"
   height="100"
   viewBox="0 0 100 100"
   version="1.1"
   sodipodi:docname="img-empty-privacy.svg"
   inkscape:version="1.2.1 (9c6d41e410, 2022-07-14)"
   xmlns:inkscape="http://www.inkscape.org/namespaces/inkscape"
   xmlns:sodipodi="http://sodipodi.sourceforge.net/DTD/sodipodi-0.dtd"
   xmlns="http://www.w3.org/2000/svg"
   xmlns:svg="http://www.w3.org/2000/svg">
  <sodipodi:namedview
     id="namedview59563"
     pagecolor="#ffffff"
     bordercolor="#000000"
     borderopacity="0.25"
     inkscape:showpageshadow="2"
     inkscape:pageopacity="0.0"
     inkscape:pagecheckerboard="0"
     inkscape:deskcolor="#d1d1d1"
     showgrid="false"
     showguides="true"
     inkscape:zoom="23.023397"
     inkscape:cx="46.365878"
     inkscape:cy="51.686552"
     inkscape:window-width="1920"
     inkscape:window-height="1017"
     inkscape:window-x="-8"
     inkscape:window-y="456"
     inkscape:window-maximized="1"
     inkscape:current-layer="ic_empty_zpiv">
    <sodipodi:guide
       position="50.036057,54.350785"
       orientation="1,0"
       id="guide59928"
       inkscape:locked="false" />
    <sodipodi:guide
       position="62.501638,50.050811"
       orientation="0,-1"
       id="guide59930"
       inkscape:locked="false" />
  </sodipodi:namedview>
  <defs
     id="defs59546">
    <style
       type="text/css"
       id="style59544">
            .cls-1{fill:#d6d6d6}.cls-2{fill:#666}.cls-3{fill:none}
        </style>
    <pattern
       id="EMFhbasepattern"
       patternUnits="userSpaceOnUse"
       width="6"
       height="6"
       x="0"
       y="0" />
  </defs>
  <g
     id="Group_9086"
     data-name="Group 9086">
    <path
       id="Path_19031"
       d="M50 26a24 24 0 1 0 24 24 24 24 0 0 0-24-24zm0 42a18 18 0 1 1 18-18 18 18 0 0 1-18 18z"
       class="cls-1"
       data-name="Path 19031" />
    <g
       id="Group_9085"
       data-name="Group 9085">
      <g
         id="Group_9083"
         data-name="Group 9083">
        <path
           id="Path_19032"
           d="M50 31a19 19 0 1 0 19 19 19.021 19.021 0 0 0-19-19zm0 36a17 17 0 1 1 17-17 17.019 17.019 0 0 1-17 17z"
           class="cls-2"
           data-name="Path 19032" />
        <path
           id="Rectangle_4749"
           d="M0 0h2v4H0z"
           class="cls-2"
           data-name="Rectangle 4749"
           transform="translate(83 56)" />
        <path
           id="Rectangle_4750"
           d="M0 0h2v8H0z"
           class="cls-2"
           data-name="Rectangle 4750"
           transform="translate(83 44)" />
        <path
           id="Rectangle_4751"
           d="M0 0h2v8H0z"
           class="cls-2"
           data-name="Rectangle 4751"
           transform="translate(15 48)" />
        <path
           id="Rectangle_4752"
           d="M0 0h2v4H0z"
           class="cls-2"
           data-name="Rectangle 4752"
           transform="translate(15 40)" />
        <path
           id="Path_19033"
           d="M95.162 71H85v-7h-2v9h7.838L76 90.456 61.162 73H68v-2h-4.461a24.989 24.989 0 0 0-22.4-44.374L24 6.456 4.838 29H15v7h2v-9H9.162L24 9.544 38.838 27H32v2h4.461a24.989 24.989 0 0 0 22.4 44.374L76 93.544zM27 50a23 23 0 1 1 23 23 23.026 23.026 0 0 1-23-23z"
           class="cls-2"
           data-name="Path 19033" />
      </g>
      <g
         id="Group_9084"
         data-name="Group 9084" />
    </g>
  </g>
  <path
     id="Rectangle_4753"
     d="M0 0h100v100H0z"
     class="cls-3"
     data-name="Rectangle 4753" />
  <path
     style="fill:#666666;fill-opacity:1;fill-rule:nonzero;stroke:none;stroke-width:0.0360515"
     d="m 52.208987,56.245136 7.054047,-7.054048 -1.538188,-1.538191 -5.515859,5.503839 v -3.136468 l 3.953631,-3.95363 -1.538189,-1.53819 -2.415442,2.415441 v -3.136468 h -2.175099 v 10.106394 h -6.729584 l 6.789674,-13.4111 v -2.175099 h -9.205107 v 2.175099 h 6.789663 l -6.825722,13.4111 v 2.151063 l 9.181076,0.03606 v 3.220587 2.054926 0.120172 h 9.205115 v -2.175095 h -7.030016 z"
     id="path59935" />
</svg>
