<?xml version="1.0" encoding="UTF-8" standalone="no"?>
<!-- Created with Inkscape (http://www.inkscape.org/) -->

<svg
   width="200.86899mm"
   height="200.869mm"
   viewBox="0 0 200.86899 200.869"
   version="1.1"
   id="svg5"
   inkscape:export-filename="img-nav-logo.svg"
   inkscape:export-xdpi="96"
   inkscape:export-ydpi="96"
   xmlns:inkscape="http://www.inkscape.org/namespaces/inkscape"
   xmlns:sodipodi="http://sodipodi.sourceforge.net/DTD/sodipodi-0.dtd"
   xmlns="http://www.w3.org/2000/svg"
   xmlns:svg="http://www.w3.org/2000/svg">
  <sodipodi:namedview
     id="namedview7"
     pagecolor="#ffffff"
     bordercolor="#000000"
     borderopacity="0.25"
     inkscape:showpageshadow="2"
     inkscape:pageopacity="0.0"
     inkscape:pagecheckerboard="0"
     inkscape:deskcolor="#d1d1d1"
     inkscape:document-units="mm"
     showgrid="false" />
  <defs
     id="defs2" />
  <g
     inkscape:label="Layer 1"
     inkscape:groupmode="layer"
     id="layer1"
     transform="translate(-5.6622783,-5.6622756)">
    <path
       style="fill:#ffb81c;fill-opacity:1;fill-rule:nonzero;stroke:none;stroke-width:0.223519"
       d="m 106.09678,5.6622755 c -55.432697,0 -100.4345017,45.0018085 -100.4345017,100.4345045 0,55.5072 45.0018047,100.4345 100.4345017,100.4345 55.43268,0 100.43449,-44.9273 100.43449,-100.4345 0,-55.432696 -45.00181,-100.4345045 -100.43449,-100.4345045 z M 149.83197,160.18835 c 0,18.32856 0,18.32856 0,18.32856 -77.486555,0 -77.486555,0 -77.486555,0 0,-1.04309 0,-1.04309 0,-1.04309 0,-17.28547 0,-17.28547 0,-17.28547 0,-130.609552 0,-130.609552 0,-130.609552 18.328556,0 18.328556,0 18.328556,0 0,26.449739 0,26.449739 0,26.449739 20.340219,-20.340221 20.340219,-20.340221 20.340219,-20.340221 12.96409,12.88959 12.96409,12.88959 12.96409,12.88959 -33.304309,33.304319 -33.304309,33.304319 -33.304309,33.304319 0,26.449745 0,26.449745 0,26.449745 46.342919,-46.417437 46.342919,-46.417437 46.342919,-46.417437 12.96409,12.964102 12.96409,12.964102 12.96409,12.964102 -59.307009,59.307015 -59.307009,59.307015 -59.307009,59.307015 0,26.0027 0,26.0027 0,26.0027 z"
       id="path259" />
  </g>
</svg>
