<?xml version="1.0" encoding="UTF-8" standalone="no"?>
<svg
   width="300px"
   height="100px"
   viewBox="0 0 300 100"
   version="1.1"
   id="svg63036"
   sodipodi:docname="img-logo-pivx.svg"
   inkscape:version="1.2.1 (9c6d41e410, 2022-07-14)"
   xmlns:inkscape="http://www.inkscape.org/namespaces/inkscape"
   xmlns:sodipodi="http://sodipodi.sourceforge.net/DTD/sodipodi-0.dtd"
   xmlns="http://www.w3.org/2000/svg"
   xmlns:svg="http://www.w3.org/2000/svg">
  <defs
     id="defs63040">
    <pattern
       id="EMFhbasepattern"
       patternUnits="userSpaceOnUse"
       width="6"
       height="6"
       x="0"
       y="0" />
    <pattern
       id="EMFhbasepattern-6"
       patternUnits="userSpaceOnUse"
       width="6"
       height="6"
       x="0"
       y="0" />
  </defs>
  <sodipodi:namedview
     id="namedview63038"
     pagecolor="#ffffff"
     bordercolor="#000000"
     borderopacity="0.25"
     inkscape:showpageshadow="2"
     inkscape:pageopacity="0.0"
     inkscape:pagecheckerboard="0"
     inkscape:deskcolor="#d1d1d1"
     showgrid="false"
     showguides="true"
     inkscape:zoom="2.275"
     inkscape:cx="113.62637"
     inkscape:cy="-8.7912088"
     inkscape:window-width="1920"
     inkscape:window-height="1017"
     inkscape:window-x="-8"
     inkscape:window-y="456"
     inkscape:window-maximized="1"
     inkscape:current-layer="svg63036">
    <sodipodi:guide
       position="128.67789,73.26981"
       orientation="0,-1"
       id="guide63405"
       inkscape:locked="false" />
    <sodipodi:guide
       position="131.47524,19.809429"
       orientation="0,-1"
       id="guide63407"
       inkscape:locked="false" />
    <sodipodi:guide
       position="99.461174,40.01248"
       orientation="1,0"
       id="guide63409"
       inkscape:locked="false" />
    <sodipodi:guide
       position="293.72128,53.688391"
       orientation="1,0"
       id="guide63411"
       inkscape:locked="false" />
  </sodipodi:namedview>
  <!-- Generator: Sketch 53.2 (72643) - https://sketchapp.com -->
  <title
     id="title63011">Artboard</title>
  <desc
     id="desc63013">Created with Sketch.</desc>
  <path
     style="fill:#ffb81c;fill-opacity:1;fill-rule:nonzero;stroke:none;stroke-width:0.1029"
     d="m 50.991595,3.6507787 c -25.519286,0 -46.2365546,20.7172693 -46.2365546,46.2365553 0,25.553585 20.7172686,46.236554 46.2365546,46.236554 25.519286,0 46.236561,-20.682969 46.236561,-46.236554 0,-25.519286 -20.717275,-46.2365553 -46.236561,-46.2365553 z M 71.125761,74.789217 c 0,8.43783 0,8.43783 0,8.43783 -35.672118,0 -35.672118,0 -35.672118,0 0,-0.480203 0,-0.480203 0,-0.480203 0,-7.957627 0,-7.957627 0,-7.957627 0,-60.128103 0,-60.128103 0,-60.128103 8.437829,0 8.437829,0 8.437829,0 0,12.176541 0,12.176541 0,12.176541 9.363931,-9.36393 9.363931,-9.36393 9.363931,-9.36393 5.968219,5.933919 5.968219,5.933919 5.968219,5.933919 -15.33215,15.332153 -15.33215,15.332153 -15.33215,15.332153 0,12.176541 0,12.176541 0,12.176541 21.33467,-21.368973 21.33467,-21.368973 21.33467,-21.368973 5.968221,5.968219 5.968221,5.968219 5.968221,5.968219 -27.302891,27.302893 -27.302891,27.302893 -27.302891,27.302893 0,11.97074 0,11.97074 0,11.97074 z"
     id="path64142" />
  <path
     style="fill:#ffffff;fill-opacity:1;fill-rule:nonzero;stroke:none;stroke-width:0.229424"
     d="M 114.92287,80.973734 V 25.376612 h 14.07135 v 45.808356 h 19.0422 v 9.788766 z"
     id="path64879" />
  <path
     style="fill:#ffffff;fill-opacity:1;fill-rule:nonzero;stroke:none;stroke-width:0.229424"
     d="m 156.67807,80.973734 13.07718,-55.597122 h 18.4304 L 200.1157,80.973734 H 185.89141 L 183.67364,69.73195 h -12.92422 l -2.4472,11.241784 z m 20.80111,-43.74354 -4.74142,22.636518 h 8.94754 l -4.05316,-22.636518 z"
     id="path64881" />
  <path
     style="fill:#ffffff;fill-opacity:1;fill-rule:nonzero;stroke:none;stroke-width:0.229424"
     d="M 206.38664,36.159547 V 25.376612 h 39.23153 V 36.159547 H 232.99984 V 80.973734 H 219.00496 V 36.159547 Z"
     id="path64883" />
  <path
     style="fill:#ffffff;fill-opacity:1;fill-rule:nonzero;stroke:none;stroke-width:0.229424"
     d="M 252.65384,68.049507 C 264.278,63.308073 264.278,63.308073 264.278,63.308073 c 1.14712,2.676616 2.44719,4.664957 3.82374,6.041503 1.37654,1.30007 3.28841,1.988343 5.81208,1.988343 1.60596,0 2.9825,-0.458849 4.05316,-1.376545 1.14712,-0.917697 1.68244,-1.988344 1.68244,-3.364889 0,-2.447189 -0.76474,-4.129633 -2.21777,-4.970855 -1.45301,-0.841222 -4.512,-2.217767 -9.02401,-4.053161 -4.58849,-1.911867 -7.95338,-4.05316 -10.17114,-6.576826 -2.14129,-2.447189 -3.28842,-6.117979 -3.28842,-10.935886 0,-2.75309 0.84122,-5.35323 2.52367,-7.800421 1.60597,-2.44719 3.82374,-4.359059 6.6533,-5.812078 2.7531,-1.453019 5.7356,-2.217768 8.7946,-2.217768 3.05899,0 5.81207,0.535325 8.41221,1.605969 2.60015,1.070647 4.81791,2.523666 6.57683,4.35906 1.75891,1.91187 3.05899,3.976686 3.90022,6.270928 -11.16532,4.741432 -11.16532,4.741432 -11.16532,4.741432 -1.91187,-4.129636 -4.43553,-6.194454 -7.72394,-6.194454 -1.30008,0 -2.4472,0.382375 -3.36489,1.223598 -0.99418,0.84122 -1.45302,1.988341 -1.45302,3.441363 0,1.682442 1.45302,3.211938 4.43553,4.588483 2.98251,1.376545 6.0415,2.753089 9.17696,4.129634 3.13546,1.300071 5.88856,3.135465 8.18281,5.429706 2.21776,2.294242 3.36488,5.429704 3.36488,9.40639 0,3.670786 -0.9177,6.959199 -2.75309,9.865238 -1.8354,2.829565 -4.28258,5.047332 -7.41804,6.653301 -3.13547,1.529494 -6.50036,2.370716 -10.17114,2.370716 -3.13547,0 -6.0415,-0.535322 -8.71812,-1.682443 -2.67662,-1.070646 -4.97086,-2.676616 -6.9592,-4.817907 -1.98834,-2.064818 -3.51784,-4.664959 -4.58849,-7.570997 z"
     id="path64885" />
</svg>
