<?xml version="1.0" encoding="UTF-8" standalone="no"?>
<svg
   id="ic_empty_dark_multisend"
   width="100"
   height="100"
   viewBox="0 0 100 100"
   version="1.1"
   sodipodi:docname="img-empty-dark-multisend.svg"
   inkscape:version="1.2.1 (9c6d41e410, 2022-07-14)"
   xmlns:inkscape="http://www.inkscape.org/namespaces/inkscape"
   xmlns:sodipodi="http://sodipodi.sourceforge.net/DTD/sodipodi-0.dtd"
   xmlns="http://www.w3.org/2000/svg"
   xmlns:svg="http://www.w3.org/2000/svg">
  <sodipodi:namedview
     id="namedview47913"
     pagecolor="#ffffff"
     bordercolor="#000000"
     borderopacity="0.25"
     inkscape:showpageshadow="2"
     inkscape:pageopacity="0.0"
     inkscape:pagecheckerboard="0"
     inkscape:deskcolor="#d1d1d1"
     showgrid="false"
     inkscape:zoom="46.046794"
     inkscape:cx="50.611559"
     inkscape:cy="45.627498"
     inkscape:window-width="1920"
     inkscape:window-height="1017"
     inkscape:window-x="-8"
     inkscape:window-y="456"
     inkscape:window-maximized="1"
     inkscape:current-layer="ic_empty_dark_multisend" />
  <defs
     id="defs47892">
    <style
       type="text/css"
       id="style47890">
            .cls-1{fill:#413d4a}.cls-2{fill:#a09ea5}.cls-3{fill:none}
        </style>
    <pattern
       id="EMFhbasepattern"
       patternUnits="userSpaceOnUse"
       width="6"
       height="6"
       x="0"
       y="0" />
  </defs>
  <g
     id="Group_9062"
     data-name="Group 9062">
    <g
       id="Group_9060"
       data-name="Group 9060">
      <path
         id="Rectangle_4717"
         d="M0 0h10v9H0z"
         class="cls-1"
         data-name="Rectangle 4717"
         transform="translate(45 18)"
         style="fill:#2d3a86;fill-opacity:1" />
      <g
         id="Group_9059"
         data-name="Group 9059">
        <path
           id="Rectangle_4718"
           d="M0 0h6v10H0z"
           class="cls-1"
           data-name="Rectangle 4718"
           transform="translate(14 66)"
           style="fill:#2d3a86;fill-opacity:1" />
        <path
           id="Rectangle_4719"
           d="M0 0h6v10H0z"
           class="cls-1"
           data-name="Rectangle 4719"
           transform="translate(80 66)"
           style="fill:#2d3a86;fill-opacity:1" />
        <path
           id="Rectangle_4720"
           d="M0 0h6v10H0z"
           class="cls-1"
           data-name="Rectangle 4720"
           transform="translate(47 66)"
           style="fill:#2d3a86;fill-opacity:1" />
      </g>
    </g>
    <g
       id="Group_9061"
       data-name="Group 9061">
      <path
         id="Rectangle_4722"
         d="M0 0h2v4H0z"
         class="cls-2"
         data-name="Rectangle 4722"
         transform="translate(67 40)" />
      <circle
         id="Ellipse_643"
         cx="1"
         cy="1"
         r="1"
         class="cls-2"
         data-name="Ellipse 643"
         transform="translate(49 72)" />
      <circle
         id="Ellipse_644"
         cx="1"
         cy="1"
         r="1"
         class="cls-2"
         data-name="Ellipse 644"
         transform="translate(82 72)" />
      <path
         id="Rectangle_4723"
         d="M0 0h4v2H0z"
         class="cls-2"
         data-name="Rectangle 4723"
         transform="translate(32 58)" />
      <path
         id="Path_19007"
         d="M16 65h-3v3H7v4h2v-2h4v7h8v-7h4v21H9V76H7v17h20V68h-6v-3h-3v-5h10v-2H16zm3 2v8h-4v-8z"
         class="cls-2"
         data-name="Path 19007" />
      <circle
         id="Ellipse_645"
         cx="1"
         cy="1"
         r="1"
         class="cls-2"
         data-name="Ellipse 645"
         transform="translate(16 72)" />
      <path
         id="Path_19008"
         d="M87 68v-3h-3v-7H51v-5h18v-5h-2v3H33V28h34v8h2v-8h4V17H59.46A5.994 5.994 0 1 0 50 9.69 5.995 5.995 0 1 0 40.54 17H27v11h4v25h18v5h-9v2h9v5h-3v3h-6v16h2V70h4v7h8v-7h4v21H42v-3h-2v5h20V68h-6v-3h-3v-5h31v5h-3v3h-6v12h2V70h4v7h8v-7h4v21H75v-7h-2v9h20V68zM71 19v7H56v-7zm-20-6a4 4 0 1 1 4 4h-4zm0 6h3v7h-8v-7h5zM45 9a4 4 0 0 1 4 4v4h-4a4 4 0 0 1 0-8zM29 26v-7h15v7H29zm23 41v8h-4v-8zm33 8h-4v-8h4z"
         class="cls-2"
         data-name="Path 19008" />
    </g>
  </g>
  <path
     id="Rectangle_4724"
     d="M0 0h100v100H0z"
     class="cls-3"
     data-name="Rectangle 4724" />
  <path
     style="fill:#9f9da4;fill-opacity:1;fill-rule:nonzero;stroke:none;stroke-width:0.0270774"
     d="m 47.722966,43.610756 7.184522,-7.193552 -1.570486,-1.561456 -5.614036,5.614035 v -3.195129 l 4.034525,-4.034521 -1.570486,-1.570486 -2.464039,2.464035 v -3.195126 h -2.220342 v 15.822197 2.093981 0.117335 h 9.386813 v -2.211316 h -7.166471 z"
     id="path49007" />
</svg>
